<?xml version="1.0" encoding="utf-8"?>
<svg viewBox="0 0 700 400" xmlns="http://www.w3.org/2000/svg">
  <defs>
    <style>.b{fill:#636366;}</style>
  </defs>
  <rect class="b" x="46.034" y="70.599" width="56.107" height="56.107" style=""/>
  <rect class="b" x="46.034" y="126.706" width="56.107" height="56.107" style=""/>
  <rect class="b" x="46.034" y="182.828" width="56.107" height="56.107" style=""/>
  <rect class="b" x="102.141" y="182.828" width="56.107" height="56.107" style=""/>
  <rect class="b" x="102.141" y="126.706" width="56.107" height="56.107" style=""/>
  <rect class="b" x="158.262" y="70.599" width="56.107" height="56.107" style=""/>
  <rect class="b" x="158.262" y="182.828" width="56.107" height="56.107" style=""/>
  <path class="b" d="M 229.658 71.006 L 247.937 71.006 L 247.937 133.74 L 280.807 133.74 L 280.807 149.42 L 229.658 149.42 L 229.658 70.996 L 229.658 71.006 Z" style=""/>
  <path class="b" d="M 293.14 89.634 L 311.07 89.634 L 311.07 149.43 L 293.14 149.43 L 293.14 89.634 Z M 291.579 73.543 C 291.579 72.269 291.825 71.068 292.329 69.908 C 292.832 68.758 293.541 67.752 294.464 66.909 C 295.431 66.026 296.559 65.338 297.863 64.835 C 299.168 64.331 300.636 64.085 302.249 64.085 C 303.86 64.085 305.318 64.331 306.633 64.835 C 307.937 65.338 309.057 66.026 309.981 66.909 C 310.947 67.752 311.676 68.758 312.169 69.908 C 312.671 71.057 312.918 72.269 312.918 73.543 C 312.918 74.816 312.671 76.08 312.169 77.23 C 311.665 78.349 310.936 79.325 309.981 80.167 C 309.057 81.008 307.927 81.686 306.582 82.19 C 305.277 82.693 303.809 82.939 302.198 82.939 C 300.585 82.939 299.178 82.693 297.874 82.19 C 296.569 81.686 295.451 81.019 294.526 80.167 C 293.602 79.284 292.873 78.287 292.339 77.169 C 291.836 76.018 291.59 74.806 291.59 73.533 L 291.579 73.543 Z" style=""/>
  <path class="b" d="M 388.456 89.634 L 363.369 149.43 L 347.401 149.43 L 322.376 89.634 L 341.465 89.634 L 355.308 125.556 L 355.421 125.556 L 369.315 89.634 L 388.456 89.634 Z" style=""/>
  <path class="b" d="M 393.015 119.559 C 393.015 115.173 393.826 111.066 395.439 107.214 C 397.051 103.334 399.32 99.944 402.247 97.069 C 405.204 94.184 408.706 91.913 412.741 90.261 C 416.818 88.567 421.316 87.724 426.234 87.724 C 431.154 87.724 435.714 88.567 439.79 90.261 C 443.908 91.913 447.42 94.184 450.336 97.069 C 453.294 99.954 455.583 103.334 457.196 107.214 C 458.849 111.055 459.68 115.173 459.68 119.559 C 459.68 120.791 459.629 121.745 459.506 122.444 C 459.434 123.132 459.332 123.83 459.219 124.518 L 410.718 124.518 C 411.222 126.397 411.992 128.091 413.03 129.591 C 414.107 131.09 415.339 132.374 416.715 133.451 C 418.143 134.489 419.663 135.3 421.275 135.875 C 422.929 136.451 424.623 136.737 426.349 136.737 C 429.152 136.737 431.595 136.142 433.67 134.952 C 435.745 133.76 437.325 132.241 438.404 130.392 L 457.657 130.392 C 456.775 133.011 455.43 135.578 453.622 138.113 C 451.815 140.609 449.586 142.837 446.937 144.799 C 444.287 146.76 441.207 148.332 437.716 149.522 C 434.254 150.714 430.435 151.309 426.245 151.309 C 421.367 151.309 416.881 150.488 412.813 148.834 C 408.736 147.141 405.245 144.86 402.319 141.975 C 399.391 139.09 397.112 135.732 395.46 131.881 C 393.847 127.999 393.036 123.881 393.036 119.538 L 393.015 119.559 Z M 426.349 101.854 C 422.62 101.854 419.467 102.8 416.891 104.679 C 414.313 106.557 412.454 109.043 411.293 112.114 L 440.704 112.114 C 439.584 109.073 437.819 106.619 435.395 104.73 C 432.971 102.81 429.952 101.844 426.338 101.844 L 426.349 101.854 Z" style=""/>
  <path class="b" d="M 491.617 110.449 L 521.951 71.006 L 543.167 71.006 L 515.667 105.951 L 544.378 149.43 L 522.813 149.43 L 503.786 119.383 L 491.617 134.776 L 491.617 149.42 L 473.339 149.42 L 473.339 70.996 L 491.617 70.996 L 491.617 110.439 L 491.617 110.449 Z" style=""/>
  <path class="b" d="M 553.661 89.634 L 571.591 89.634 L 571.591 149.43 L 553.661 149.43 L 553.661 89.634 Z M 552.111 73.543 C 552.111 72.269 552.357 71.068 552.86 69.908 C 553.364 68.758 554.072 67.752 554.996 66.909 C 555.962 66.026 557.091 65.338 558.395 64.835 C 559.699 64.331 561.167 64.085 562.781 64.085 C 564.392 64.085 565.85 64.331 567.165 64.835 C 568.469 65.338 569.589 66.026 570.512 66.909 C 571.478 67.752 572.207 68.758 572.701 69.908 C 573.203 71.057 573.45 72.269 573.45 73.543 C 573.45 74.816 573.203 76.08 572.701 77.23 C 572.197 78.349 571.468 79.325 570.512 80.167 C 569.589 81.008 568.459 81.686 567.113 82.19 C 565.809 82.693 564.341 82.939 562.729 82.939 C 561.116 82.939 559.71 82.693 558.405 82.19 C 557.101 81.686 555.983 81.019 555.058 80.167 C 554.134 79.284 553.405 78.287 552.871 77.169 C 552.367 76.018 552.121 74.806 552.121 73.533 L 552.111 73.543 Z" style=""/>
  <path class="b" d="M 598.352 73.143 L 611.147 73.029 L 611.147 89.634 L 628.502 89.634 L 628.502 104.915 L 611.147 104.915 L 611.147 125.904 C 611.147 127.753 611.352 129.282 611.784 130.515 C 612.245 131.706 612.841 132.671 613.569 133.4 C 614.341 134.088 615.244 134.571 616.28 134.837 C 617.318 135.105 618.438 135.239 619.628 135.239 L 629.599 135.239 L 629.487 149.831 L 617.893 149.831 C 614.546 149.831 611.372 149.543 608.375 148.967 C 605.416 148.353 602.818 147.202 600.59 145.507 C 598.362 143.783 596.595 141.379 595.281 138.299 C 594.007 135.187 593.381 131.111 593.381 126.078 L 593.381 104.915 L 583.862 104.915 L 583.862 91.309 L 592.92 87.847 L 598.342 73.143 L 598.352 73.143 Z" style=""/>
  <path d="M 225.711 244.601 L 225.711 235.074 L 232.131 235.074 L 232.131 236.734 L 227.725 236.734 L 227.725 239.005 L 231.801 239.005 L 231.801 240.665 L 227.725 240.665 L 227.725 242.94 L 232.149 242.94 L 232.149 244.601 Z M 253.731 244.601 L 253.731 235.074 L 255.745 235.074 L 255.745 242.94 L 259.829 242.94 L 259.829 244.601 Z M 281.163 244.601 L 281.163 235.074 L 284.922 235.074 Q 286.006 235.074 286.769 235.485 Q 287.532 235.897 287.934 236.625 Q 288.337 237.353 288.337 238.302 Q 288.337 239.251 287.927 239.977 Q 287.518 240.703 286.743 241.107 Q 285.969 241.512 284.871 241.512 L 282.475 241.512 L 282.475 239.898 L 284.545 239.898 Q 285.127 239.898 285.506 239.695 Q 285.885 239.493 286.073 239.133 Q 286.262 238.772 286.262 238.302 Q 286.262 237.828 286.073 237.472 Q 285.885 237.116 285.504 236.918 Q 285.122 236.721 284.536 236.721 L 283.178 236.721 L 283.178 244.601 Z" transform="matrix(4.214752, 0, 0, 4.093309, -662.714294, -776.32074)" style="fill: rgb(79, 79, 79);"/>
  <path d="M 319.419 225.583 L 319.419 211.52 L 321.453 211.52 L 321.453 212.992 Q 321.641 212.317 322.208 211.83 Q 322.775 211.342 323.656 211.342 Q 324.359 211.342 324.88 211.675 Q 325.4 212.008 325.663 212.767 Q 326.019 212.13 326.619 211.736 Q 327.219 211.342 328.053 211.342 Q 329.216 211.342 329.797 212.163 Q 330.378 212.983 330.378 214.549 L 330.378 225.583 L 328.334 225.583 L 328.334 214.502 Q 328.334 213.714 328.039 213.4 Q 327.744 213.086 327.247 213.086 Q 326.563 213.086 326.239 213.419 Q 325.916 213.752 325.916 214.577 L 325.916 225.583 L 323.872 225.583 L 323.872 214.492 Q 323.872 213.761 323.6 213.424 Q 323.328 213.086 322.803 213.086 Q 322.128 213.086 321.791 213.536 Q 321.453 213.986 321.453 214.717 L 321.453 225.583 Z M 336.953 225.705 Q 336.372 225.705 335.856 225.4 Q 335.341 225.095 335.041 224.374 L 335.041 225.583 L 332.997 225.583 L 332.997 208.914 L 335.041 208.914 L 335.041 212.617 Q 335.209 212.027 335.734 211.689 Q 336.259 211.352 336.822 211.352 Q 337.881 211.352 338.439 211.928 Q 338.997 212.505 339.208 213.513 Q 339.419 214.52 339.419 215.777 L 339.419 221.299 Q 339.419 222.545 339.217 223.549 Q 339.016 224.552 338.486 225.128 Q 337.956 225.705 336.953 225.705 Z M 336.278 224.055 Q 336.972 224.045 337.169 223.366 Q 337.366 222.686 337.366 221.252 L 337.366 215.57 Q 337.366 214.811 337.305 214.244 Q 337.244 213.677 337.019 213.363 Q 336.794 213.049 336.316 213.049 Q 335.894 213.049 335.613 213.241 Q 335.331 213.433 335.186 213.972 Q 335.041 214.511 335.041 215.57 L 335.041 221.289 Q 335.041 222.667 335.27 223.361 Q 335.5 224.055 336.278 224.055 Z M 344.909 225.752 Q 343.906 225.752 343.274 225.414 Q 342.641 225.077 342.294 224.453 Q 341.947 223.83 341.816 222.949 Q 341.684 222.067 341.684 220.97 L 341.684 215.936 Q 341.684 214.614 341.956 213.578 Q 342.228 212.542 342.927 211.947 Q 343.625 211.352 344.909 211.352 Q 345.866 211.352 346.489 211.689 Q 347.113 212.027 347.464 212.65 Q 347.816 213.274 347.956 214.108 Q 348.097 214.942 348.097 215.936 L 348.097 220.97 Q 348.097 222.049 347.97 222.925 Q 347.844 223.802 347.506 224.435 Q 347.169 225.067 346.541 225.41 Q 345.913 225.752 344.909 225.752 Z M 344.909 224.064 Q 345.397 224.064 345.636 223.745 Q 345.875 223.427 345.959 222.85 Q 346.044 222.274 346.044 221.514 L 346.044 215.542 Q 346.044 214.783 345.959 214.225 Q 345.875 213.667 345.631 213.353 Q 345.388 213.039 344.909 213.039 Q 344.403 213.039 344.15 213.353 Q 343.897 213.667 343.817 214.225 Q 343.738 214.783 343.738 215.542 L 343.738 221.514 Q 343.738 222.274 343.817 222.85 Q 343.897 223.427 344.15 223.745 Q 344.403 224.064 344.909 224.064 Z M 352.784 225.705 Q 351.725 225.705 351.205 225.095 Q 350.684 224.486 350.52 223.441 Q 350.356 222.395 350.356 221.083 L 350.356 215.683 Q 350.356 214.455 350.595 213.475 Q 350.834 212.495 351.425 211.924 Q 352.016 211.352 353.056 211.352 Q 353.619 211.352 354.064 211.666 Q 354.509 211.98 354.744 212.449 L 354.744 208.914 L 356.788 208.914 L 356.788 225.583 L 354.744 225.583 L 354.744 224.374 Q 354.463 225.077 353.952 225.391 Q 353.441 225.705 352.784 225.705 Z M 353.506 224.055 Q 353.947 224.055 354.224 223.825 Q 354.5 223.595 354.627 223.005 Q 354.753 222.414 354.753 221.355 L 354.753 215.711 Q 354.753 214.417 354.528 213.733 Q 354.303 213.049 353.553 213.049 Q 352.859 213.058 352.634 213.719 Q 352.409 214.38 352.409 215.758 L 352.409 221.458 Q 352.409 222.255 352.489 222.841 Q 352.569 223.427 352.808 223.741 Q 353.047 224.055 353.506 224.055 Z M 359.497 225.583 L 359.497 211.52 L 361.55 211.52 L 361.55 225.583 Z M 359.497 210.227 L 359.497 208.38 L 361.55 208.38 L 361.55 210.227 Z M 367.238 225.752 Q 366.216 225.752 365.588 225.405 Q 364.959 225.058 364.627 224.411 Q 364.294 223.764 364.177 222.86 Q 364.059 221.955 364.059 220.858 L 364.059 215.833 Q 364.059 214.839 364.214 214.019 Q 364.369 213.199 364.73 212.603 Q 365.091 212.008 365.724 211.68 Q 366.356 211.352 367.313 211.352 Q 368.288 211.352 368.892 211.68 Q 369.497 212.008 369.816 212.613 Q 370.134 213.217 370.252 214.056 Q 370.369 214.895 370.369 215.908 L 370.369 218.636 L 366.113 218.636 L 366.113 221.43 Q 366.113 222.705 366.291 223.385 Q 366.469 224.064 367.256 224.064 Q 367.781 224.064 368.006 223.741 Q 368.231 223.417 368.283 222.831 Q 368.334 222.245 368.334 221.458 L 368.334 220.305 L 370.331 220.305 L 370.331 220.933 Q 370.331 222.039 370.233 222.925 Q 370.134 223.811 369.83 224.444 Q 369.525 225.077 368.902 225.414 Q 368.278 225.752 367.238 225.752 Z M 366.103 217.305 L 368.334 217.305 L 368.334 215.514 Q 368.334 214.699 368.274 214.141 Q 368.213 213.583 368.002 213.297 Q 367.791 213.011 367.313 213.011 Q 366.769 213.011 366.511 213.339 Q 366.253 213.667 366.178 214.244 Q 366.103 214.82 366.103 215.58 Z M 374.863 225.705 Q 373.803 225.705 373.283 225.095 Q 372.763 224.486 372.599 223.441 Q 372.434 222.395 372.434 221.083 L 372.434 215.683 Q 372.434 214.455 372.674 213.475 Q 372.913 212.495 373.503 211.924 Q 374.094 211.352 375.134 211.352 Q 375.697 211.352 376.142 211.666 Q 376.588 211.98 376.822 212.449 L 376.822 208.914 L 378.866 208.914 L 378.866 225.583 L 376.822 225.583 L 376.822 224.374 Q 376.541 225.077 376.03 225.391 Q 375.519 225.705 374.863 225.705 Z M 375.584 224.055 Q 376.025 224.055 376.302 223.825 Q 376.578 223.595 376.705 223.005 Q 376.831 222.414 376.831 221.355 L 376.831 215.711 Q 376.831 214.417 376.606 213.733 Q 376.381 213.049 375.631 213.049 Q 374.938 213.058 374.713 213.719 Q 374.488 214.38 374.488 215.758 L 374.488 221.458 Q 374.488 222.255 374.567 222.841 Q 374.647 223.427 374.886 223.741 Q 375.125 224.055 375.584 224.055 Z" style="fill: rgb(96, 6, 6);"/>
  <path d="M 439.012 224.125 Q 437.99 224.125 437.362 223.778 Q 436.733 223.431 436.401 222.784 Q 436.068 222.137 435.951 221.233 Q 435.833 220.328 435.833 219.231 L 435.833 214.206 Q 435.833 213.212 435.988 212.392 Q 436.143 211.572 436.504 210.976 Q 436.865 210.381 437.497 210.053 Q 438.13 209.725 439.087 209.725 Q 440.062 209.725 440.666 210.053 Q 441.271 210.381 441.59 210.986 Q 441.908 211.59 442.026 212.429 Q 442.143 213.268 442.143 214.281 L 442.143 217.009 L 437.887 217.009 L 437.887 219.803 Q 437.887 221.078 438.065 221.758 Q 438.243 222.437 439.03 222.437 Q 439.555 222.437 439.78 222.114 Q 440.005 221.79 440.057 221.204 Q 440.108 220.618 440.108 219.831 L 440.108 218.678 L 442.105 218.678 L 442.105 219.306 Q 442.105 220.412 442.007 221.298 Q 441.908 222.184 441.604 222.817 Q 441.299 223.45 440.676 223.787 Q 440.052 224.125 439.012 224.125 Z M 437.877 215.678 L 440.108 215.678 L 440.108 213.887 Q 440.108 213.072 440.047 212.514 Q 439.987 211.956 439.776 211.67 Q 439.565 211.384 439.087 211.384 Q 438.543 211.384 438.285 211.712 Q 438.027 212.04 437.952 212.617 Q 437.877 213.193 437.877 213.953 Z M 446.552 224.078 Q 445.249 224.078 444.687 223.079 Q 444.124 222.081 444.115 220.328 L 444.115 219.062 Q 444.115 218.087 444.433 217.454 Q 444.752 216.822 445.338 216.404 Q 445.924 215.987 446.721 215.654 Q 447.518 215.322 448.465 214.947 L 448.465 213.831 Q 448.465 212.968 448.408 212.439 Q 448.352 211.909 448.132 211.661 Q 447.912 211.412 447.424 211.412 Q 446.946 211.412 446.707 211.661 Q 446.468 211.909 446.393 212.443 Q 446.318 212.978 446.318 213.822 L 446.318 214.337 L 444.293 214.337 L 444.293 213.934 Q 444.293 213.015 444.415 212.247 Q 444.537 211.478 444.869 210.915 Q 445.202 210.353 445.83 210.039 Q 446.458 209.725 447.471 209.725 Q 448.418 209.725 449.018 210.02 Q 449.618 210.315 449.946 210.887 Q 450.274 211.459 450.405 212.308 Q 450.537 213.156 450.537 214.272 L 450.537 223.956 L 448.483 223.956 L 448.483 222.7 Q 448.39 223.009 448.141 223.328 Q 447.893 223.647 447.499 223.862 Q 447.105 224.078 446.552 224.078 Z M 447.162 222.456 Q 447.658 222.456 448.01 222.128 Q 448.362 221.8 448.465 221.472 L 448.465 216.231 Q 447.78 216.531 447.335 216.784 Q 446.89 217.037 446.637 217.314 Q 446.383 217.59 446.28 217.975 Q 446.177 218.359 446.177 218.94 L 446.177 220.3 Q 446.177 221.443 446.379 221.95 Q 446.58 222.456 447.162 222.456 Z M 453.002 223.956 L 453.002 209.893 L 455.055 209.893 L 455.055 211.459 Q 455.299 210.643 455.904 210.184 Q 456.508 209.725 457.446 209.725 Q 457.465 209.725 457.469 209.987 Q 457.474 210.25 457.474 210.587 Q 457.474 210.925 457.474 211.187 Q 457.474 211.45 457.474 211.45 Q 457.024 211.45 456.565 211.558 Q 456.105 211.665 455.707 211.914 Q 455.308 212.162 455.055 212.584 L 455.055 223.956 Z M 459.083 223.956 L 459.083 209.893 L 461.118 209.893 L 461.118 211.412 Q 461.305 210.737 461.915 210.226 Q 462.524 209.715 463.387 209.715 Q 464.474 209.715 465.069 210.479 Q 465.665 211.243 465.665 212.772 L 465.665 223.956 L 463.63 223.956 L 463.63 212.809 Q 463.63 212.087 463.302 211.75 Q 462.974 211.412 462.458 211.412 Q 462.074 211.412 461.769 211.59 Q 461.465 211.768 461.291 212.125 Q 461.118 212.481 461.118 213.034 L 461.118 223.956 Z M 468.302 223.956 L 468.302 209.893 L 470.355 209.893 L 470.355 223.956 Z M 468.302 208.6 L 468.302 206.753 L 470.355 206.753 L 470.355 208.6 Z M 473.052 223.956 L 473.052 209.893 L 475.087 209.893 L 475.087 211.412 Q 475.274 210.737 475.883 210.226 Q 476.493 209.715 477.355 209.715 Q 478.443 209.715 479.038 210.479 Q 479.633 211.243 479.633 212.772 L 479.633 223.956 L 477.599 223.956 L 477.599 212.809 Q 477.599 212.087 477.271 211.75 Q 476.943 211.412 476.427 211.412 Q 476.043 211.412 475.738 211.59 Q 475.433 211.768 475.26 212.125 Q 475.087 212.481 475.087 213.034 L 475.087 223.956 Z M 485.13 226.093 Q 484.118 226.122 483.34 225.878 Q 482.562 225.634 481.98 225.175 L 482.712 223.806 Q 483.143 224.097 483.71 224.308 Q 484.277 224.518 485.008 224.509 Q 485.674 224.49 486.04 224.012 Q 486.405 223.534 486.405 222.737 L 486.405 221.443 Q 486.133 222.137 485.651 222.376 Q 485.168 222.615 484.54 222.615 Q 483.555 222.615 483.007 222.053 Q 482.458 221.49 482.243 220.515 Q 482.027 219.54 482.027 218.303 L 482.027 214.168 Q 482.027 212.903 482.276 211.89 Q 482.524 210.878 483.11 210.292 Q 483.696 209.706 484.69 209.725 Q 485.318 209.734 485.763 210.039 Q 486.208 210.343 486.405 210.972 L 486.405 209.893 L 488.44 209.893 L 488.44 222.559 Q 488.44 223.206 488.285 223.825 Q 488.13 224.443 487.765 224.95 Q 487.399 225.456 486.757 225.761 Q 486.115 226.065 485.13 226.093 Z M 485.327 221.012 Q 485.693 221.012 485.932 220.792 Q 486.171 220.572 486.288 219.986 Q 486.405 219.4 486.405 218.303 L 486.405 213.906 Q 486.405 212.697 486.176 212.054 Q 485.946 211.412 485.243 211.412 Q 484.727 211.412 484.479 211.731 Q 484.23 212.05 484.155 212.603 Q 484.08 213.156 484.08 213.887 L 484.08 218.322 Q 484.08 219.643 484.324 220.328 Q 484.568 221.012 485.327 221.012 Z" style="fill: rgb(96, 6, 6);"/>
  <path d="M 555.493 223.776 L 555.493 207.107 L 557.527 207.107 L 557.527 223.776 Z M 562.387 223.898 Q 561.084 223.898 560.521 222.899 Q 559.959 221.901 559.949 220.148 L 559.949 218.882 Q 559.949 217.907 560.268 217.274 Q 560.587 216.642 561.173 216.224 Q 561.759 215.807 562.556 215.474 Q 563.352 215.142 564.299 214.767 L 564.299 213.651 Q 564.299 212.789 564.243 212.259 Q 564.187 211.729 563.966 211.481 Q 563.746 211.232 563.259 211.232 Q 562.781 211.232 562.541 211.481 Q 562.302 211.729 562.227 212.264 Q 562.152 212.798 562.152 213.642 L 562.152 214.157 L 560.127 214.157 L 560.127 213.754 Q 560.127 212.835 560.249 212.067 Q 560.371 211.298 560.704 210.735 Q 561.037 210.173 561.665 209.859 Q 562.293 209.545 563.306 209.545 Q 564.252 209.545 564.852 209.84 Q 565.452 210.135 565.781 210.707 Q 566.109 211.279 566.24 212.128 Q 566.371 212.976 566.371 214.092 L 566.371 223.776 L 564.318 223.776 L 564.318 222.52 Q 564.224 222.829 563.976 223.148 Q 563.727 223.467 563.334 223.682 Q 562.94 223.898 562.387 223.898 Z M 562.996 222.276 Q 563.493 222.276 563.845 221.948 Q 564.196 221.62 564.299 221.292 L 564.299 216.051 Q 563.615 216.351 563.17 216.604 Q 562.724 216.857 562.471 217.134 Q 562.218 217.41 562.115 217.795 Q 562.012 218.179 562.012 218.76 L 562.012 220.12 Q 562.012 221.264 562.213 221.77 Q 562.415 222.276 562.996 222.276 Z M 571.302 223.86 Q 570.402 223.86 569.938 223.645 Q 569.474 223.429 569.31 222.946 Q 569.146 222.464 569.146 221.676 L 569.146 211.364 L 567.89 211.364 L 567.89 209.864 L 569.146 209.864 L 569.146 207.276 L 571.19 207.276 L 571.19 209.864 L 572.671 209.864 L 572.671 211.364 L 571.19 211.364 L 571.19 221.451 Q 571.19 221.798 571.284 221.971 Q 571.377 222.145 571.701 222.201 Q 572.024 222.257 572.699 222.257 L 572.699 223.86 Z M 575.015 223.776 L 575.015 211.757 L 573.834 211.757 L 573.834 210.257 L 575.015 210.257 L 575.015 209.564 Q 575.015 208.354 575.554 207.693 Q 576.093 207.032 577.227 207.032 Q 577.79 207.032 578.198 207.121 Q 578.606 207.21 578.652 207.239 L 578.652 208.626 Q 578.306 208.57 578.015 208.57 Q 577.415 208.57 577.232 208.823 Q 577.049 209.076 577.049 209.517 L 577.049 210.257 L 578.652 210.257 L 578.652 211.757 L 577.049 211.757 L 577.049 223.776 Z M 583.424 223.945 Q 582.421 223.945 581.788 223.607 Q 581.156 223.27 580.809 222.646 Q 580.462 222.023 580.331 221.142 Q 580.199 220.26 580.199 219.164 L 580.199 214.129 Q 580.199 212.807 580.471 211.771 Q 580.743 210.735 581.441 210.14 Q 582.14 209.545 583.424 209.545 Q 584.381 209.545 585.004 209.882 Q 585.627 210.22 585.979 210.843 Q 586.331 211.467 586.471 212.301 Q 586.612 213.135 586.612 214.129 L 586.612 219.164 Q 586.612 220.242 586.485 221.118 Q 586.359 221.995 586.021 222.628 Q 585.684 223.26 585.056 223.603 Q 584.427 223.945 583.424 223.945 Z M 583.424 222.257 Q 583.912 222.257 584.151 221.939 Q 584.39 221.62 584.474 221.043 Q 584.559 220.467 584.559 219.707 L 584.559 213.735 Q 584.559 212.976 584.474 212.418 Q 584.39 211.86 584.146 211.546 Q 583.902 211.232 583.424 211.232 Q 582.918 211.232 582.665 211.546 Q 582.412 211.86 582.332 212.418 Q 582.252 212.976 582.252 213.735 L 582.252 219.707 Q 582.252 220.467 582.332 221.043 Q 582.412 221.62 582.665 221.939 Q 582.918 222.257 583.424 222.257 Z M 589.087 223.776 L 589.087 209.714 L 591.14 209.714 L 591.14 211.279 Q 591.384 210.464 591.988 210.004 Q 592.593 209.545 593.531 209.545 Q 593.549 209.545 593.554 209.807 Q 593.559 210.07 593.559 210.407 Q 593.559 210.745 593.559 211.007 Q 593.559 211.27 593.559 211.27 Q 593.109 211.27 592.649 211.378 Q 592.19 211.485 591.791 211.734 Q 591.393 211.982 591.14 212.404 L 591.14 223.776 Z M 595.184 223.776 L 595.184 209.714 L 597.218 209.714 L 597.218 211.185 Q 597.406 210.51 597.973 210.023 Q 598.54 209.535 599.421 209.535 Q 600.124 209.535 600.645 209.868 Q 601.165 210.201 601.427 210.96 Q 601.784 210.323 602.384 209.929 Q 602.984 209.535 603.818 209.535 Q 604.981 209.535 605.562 210.356 Q 606.143 211.176 606.143 212.742 L 606.143 223.776 L 604.099 223.776 L 604.099 212.695 Q 604.099 211.907 603.804 211.593 Q 603.509 211.279 603.012 211.279 Q 602.327 211.279 602.004 211.612 Q 601.681 211.945 601.681 212.77 L 601.681 223.776 L 599.637 223.776 L 599.637 212.685 Q 599.637 211.954 599.365 211.617 Q 599.093 211.279 598.568 211.279 Q 597.893 211.279 597.556 211.729 Q 597.218 212.179 597.218 212.91 L 597.218 223.776 Z" style="fill: rgb(96, 6, 6);"/>
</svg>
